<?xml version="1.0" encoding="UTF-8"?><svg id="Layer_1" xmlns="http://www.w3.org/2000/svg" viewBox="0 0 93.82 86.86"><defs><style>.cls-1{fill:#f7c563;}.cls-2{stroke:#fec010;}.cls-2,.cls-3{fill:none;stroke-miterlimit:8;}.cls-3{stroke:#f5bc5e;stroke-width:2px;}</style></defs><rect class="cls-3" x="1" y="1" width="91.82" height="84.86" rx="5.7" ry="5.7"/><ellipse class="cls-1" cx="6.89" cy="6.61" rx="2.13" ry="2.08"/><ellipse class="cls-1" cx="14.98" cy="6.72" rx="2.13" ry="2.08"/><ellipse class="cls-1" cx="23.06" cy="6.61" rx="2.13" ry="2.08"/><path class="cls-2" d="M57.44,38.96v6.04m-20.97-6.04h20.97l6.08-6.08m-27.05,6.08l6.08-6.08h20.97v6.04l-6.08,6.08h-20.97v-6.04Z"/><path class="cls-2" d="M57.44,32.9v6.04m-20.97-6.04h20.97l6.08-6.08m-27.05,6.08l6.08-6.08h20.97v6.04l-6.08,6.08h-20.97v-6.04Z"/><path class="cls-2" d="M57.44,26.95v6.04m-20.97-6.04h20.97l6.08-6.08m-27.05,6.08l6.08-6.08h20.97v6.04l-6.08,6.08h-20.97v-6.04Z"/><path class="cls-2" d="M78.26,57.09v6.1m-20.8-6.1h20.8l6.14-6.14m-26.94,6.14l6.14-6.14h20.8v6.1l-6.14,6.14h-20.8v-6.1Z"/><path class="cls-2" d="M78.26,51.03v6.1m-20.8-6.1h20.8l6.14-6.14m-26.94,6.14l6.14-6.14h20.8v6.1l-6.14,6.14h-20.8v-6.1Z"/><path class="cls-2" d="M78.32,45.02v6.04m-20.86-6.04h20.86l6.08-6.08m-26.94,6.08l6.08-6.08h20.86v6.04l-6.08,6.08h-20.86v-6.04Z"/><path class="cls-2" d="M30.39,63.09v6.04m-20.86-6.04H30.39l6.08-6.08m-26.94,6.08l6.08-6.08h20.86v6.04l-6.08,6.08H9.53v-6.04Z"/><path class="cls-2" d="M30.39,57.03v6.04m-20.86-6.04H30.39l6.08-6.08m-26.94,6.08l6.08-6.08h20.86v6.04l-6.08,6.08H9.53v-6.04Z"/><path class="cls-2" d="M30.39,51.08v6.04m-20.86-6.04H30.39l6.08-6.08m-26.94,6.08l6.08-6.08h20.86v6.04l-6.08,6.08H9.53v-6.04Z"/><path class="cls-2" d="M30.39,44.91v6.04m-20.86-6.04H30.39l6.08-6.08m-26.94,6.08l6.08-6.08h20.86v6.04l-6.08,6.08H9.53v-6.04Z"/><path class="cls-2" d="M30.33,38.9v6.1m-20.8-6.1H30.33l6.14-6.14m-26.94,6.14l6.14-6.14h20.8v6.1l-6.14,6.14H9.53v-6.1Z"/><path class="cls-2" d="M30.39,32.9v6.04m-20.86-6.04H30.39l6.08-6.08m-26.94,6.08l6.08-6.08h20.86v6.04l-6.08,6.08H9.53v-6.04Z"/></svg>