<?xml version="1.0" encoding="UTF-8"?><svg id="Layer_1" xmlns="http://www.w3.org/2000/svg" viewBox="0 0 80.89 80.89"><defs><style>.cls-1{stroke-linecap:round;}.cls-1,.cls-2{fill:none;stroke:#fec010;stroke-linejoin:round;}.cls-3{fill:#fdbb5e;fill-rule:evenodd;}</style></defs><path class="cls-3" d="M71.43,10.48c-.99,0-1.8,.81-1.8,1.8s.81,1.8,1.8,1.8,1.8-.81,1.8-1.8-.81-1.8-1.8-1.8Zm5.63,22.53c-.99,0-1.8,.81-1.8,1.8s.81,1.8,1.8,1.8,1.8-.81,1.8-1.8-.81-1.8-1.8-1.8Zm0,11.27c-.99,0-1.8,.81-1.8,1.8s.81,1.8,1.8,1.8,1.8-.81,1.8-1.8-.81-1.8-1.8-1.8Zm-5.63,22.53c-.99,0-1.8,.81-1.8,1.8s.81,1.8,1.8,1.8,1.8-.81,1.8-1.8-.81-1.8-1.8-1.8Zm-51.48,6.39l.4,.52c1.86,3.22,5.17,5.14,8.83,5.14,5.65,0,10.25-4.6,10.25-10.25V12.28c0-5.65-4.6-10.25-10.25-10.25-3.66,0-6.97,1.92-8.84,5.14l-.33,.5c-.72,1.42-1.09,3-1.09,4.61,0,1.8,.47,3.57,1.37,5.13l-1.75,1.01c-1.08-1.86-1.64-3.98-1.64-6.14,0-1.54,.29-3.06,.84-4.49-5.74,.81-10.08,5.67-10.08,11.53,0,2.47,.8,4.85,2.3,6.89l.69,.94-1.03,.55c-4.69,2.54-7.6,7.42-7.6,12.74,0,5.03,2.6,9.66,6.84,12.29,2.61-3.09,6.4-4.86,10.46-4.86v2.03c-3.4,0-6.58,1.46-8.8,4.01l-.56,.76c-1.5,2.04-2.3,4.42-2.3,6.89,0,6.43,5.23,11.66,11.66,11.66l.62-.03Zm9.24,7.69c-4.14,0-8.03-2.16-10.29-5.66-7.45-.31-13.26-6.32-13.26-13.66,0-2.53,.71-4.99,2.06-7.17-4.77-3.01-7.7-8.27-7.7-13.96s2.92-10.95,7.7-13.96c-1.35-2.17-2.06-4.63-2.06-7.16,0-7.41,5.92-13.46,13.27-13.68C21.17,2.15,25.05,0,29.18,0c6.77,0,12.28,5.51,12.28,12.28v13.07h24.33c2.55,0,4.62-2.07,4.62-4.62v-4.75c-1.62-.45-2.82-1.93-2.82-3.7,0-2.11,1.72-3.83,3.83-3.83s3.83,1.72,3.83,3.83c0,1.76-1.2,3.25-2.82,3.7v4.75c0,3.66-2.98,6.65-6.65,6.65h-24.33v6.42h31.91c.44-1.62,1.93-2.82,3.7-2.82,2.11,0,3.83,1.72,3.83,3.83s-1.72,3.83-3.83,3.83c-1.76,0-3.25-1.19-3.7-2.82h-31.91v9.24h31.91c.44-1.62,1.93-2.82,3.7-2.82,2.11,0,3.83,1.72,3.83,3.83s-1.72,3.83-3.83,3.83c-1.76,0-3.25-1.2-3.7-2.82h-31.91v6.42h24.33c3.67,0,6.65,2.98,6.65,6.65v4.75c1.62,.45,2.82,1.94,2.82,3.7,0,2.11-1.72,3.83-3.83,3.83s-3.83-1.72-3.83-3.83c0-1.76,1.2-3.25,2.82-3.7v-4.75c0-2.55-2.07-4.62-4.62-4.62h-24.33v13.07c0,6.77-5.51,12.28-12.28,12.28Z"/><path class="cls-3" d="M14.18,38.41c-.99-.99-1.54-2.3-1.54-3.7,0-3.08,2.15-5.24,5.24-5.24,1.42,0,2.7,.53,3.7,1.53l-1.13,1.13c-.69-.69-1.58-1.06-2.57-1.06-2.21,0-3.64,1.43-3.64,3.64,0,.97,.38,1.88,1.07,2.57l-1.13,1.13Z"/><rect class="cls-2" x="23.18" y="11.27" width="13.52" height="13.52" rx="1.84" ry="1.84"/><path class="cls-2" d="M33.73,13.61c.35,0,.63,.27,.63,.61v7.36c0,.34-.28,.61-.63,.61h-7.58c-.35,0-.63-.27-.63-.61v-7.36c0-.34,.28-.61,.63-.61h7.58Z"/><path class="cls-1" d="M21.88,14.93h1.24m-1.24,6.2h1.24m-1.24-3.1h1.24m13.64-3.1h1.24m-1.24,6.2h1.24m-1.24-3.1h1.24m-11.16,8.06v-1.24m6.2,1.24v-1.24m-3.1,1.24v-1.24m-3.1-13.64v-1.24m6.2,1.24v-1.24m-3.1,1.24v-1.24"/><rect class="cls-2" x="23.18" y="33.06" width="13.52" height="13.52" rx="1.84" ry="1.84"/><path class="cls-2" d="M33.73,35.4c.35,0,.63,.27,.63,.61v7.36c0,.34-.28,.61-.63,.61h-7.58c-.35,0-.63-.27-.63-.61v-7.36c0-.34,.28-.61,.63-.61h7.58Z"/><path class="cls-1" d="M21.88,36.72h1.24m-1.24,6.2h1.24m-1.24-3.1h1.24m13.64-3.1h1.24m-1.24,6.2h1.24m-1.24-3.1h1.24m-11.16,8.06v-1.24m6.2,1.24v-1.24m-3.1,1.24v-1.24m-3.1-13.64v-1.24m6.2,1.24v-1.24m-3.1,1.24v-1.24"/><rect class="cls-2" x="23.18" y="54.85" width="13.52" height="13.52" rx="1.84" ry="1.84"/><path class="cls-2" d="M33.73,57.19c.35,0,.63,.27,.63,.61v7.36c0,.34-.28,.61-.63,.61h-7.58c-.35,0-.63-.27-.63-.61v-7.36c0-.34,.28-.61,.63-.61h7.58Z"/><path class="cls-1" d="M21.88,58.51h1.24m-1.24,6.2h1.24m-1.24-3.1h1.24m13.64-3.1h1.24m-1.24,6.2h1.24m-1.24-3.1h1.24m-11.16,8.06v-1.24m6.2,1.24v-1.24m-3.1,1.24v-1.24m-3.1-13.64v-1.24m6.2,1.24v-1.24m-3.1,1.24v-1.24"/></svg>