<svg width="79" height="79" xmlns="http://www.w3.org/2000/svg" xmlns:xlink="http://www.w3.org/1999/xlink" xml:space="preserve" overflow="hidden"><defs><clipPath id="clip0"><rect x="813" y="251" width="79" height="79"/></clipPath></defs><g clip-path="url(#clip0)" transform="translate(-813 -251)"><path d="M852.5 267.176C856.136 267.176 859.083 264.229 859.083 260.593 859.083 256.957 856.136 254.009 852.5 254.009 848.864 254.009 845.917 256.957 845.917 260.593 845.921 264.227 848.866 267.172 852.5 267.176ZM852.5 255.655C855.227 255.655 857.438 257.866 857.438 260.593 857.438 263.32 855.227 265.53 852.5 265.53 849.773 265.53 847.562 263.32 847.562 260.593 847.566 257.867 849.774 255.658 852.5 255.655Z" stroke="#FFDB70" stroke-width="2" fill="#FFDB70"/><path d="M840.144 276.368C840.194 275.566 840.547 274.812 841.131 274.26 842.999 272.921 845.079 271.908 847.284 271.262 848.979 270.766 850.734 270.499 852.5 270.468 854.265 270.473 856.019 270.74 857.705 271.259 859.929 271.828 862.014 272.841 863.836 274.237 864.424 274.808 864.788 275.572 864.86 276.389L865.486 279.516 867.164 279.516 866.48 276.101C866.357 274.888 865.783 273.765 864.871 272.956 862.881 271.422 860.6 270.308 858.167 269.68 856.331 269.116 854.421 268.827 852.5 268.822 850.585 268.854 848.682 269.143 846.843 269.68 844.436 270.379 842.167 271.487 840.136 272.955 839.23 273.755 838.656 274.865 838.527 276.066L837.836 279.517 839.514 279.517Z" stroke="#FFDB70" stroke-width="2" fill="#FFDB70"/><path d="M868.958 291.864 872.25 281.989 832.75 281.989 836.042 291.864 840.979 291.864 844.114 324.78 839.333 324.78 839.333 326.426 865.667 326.426 865.667 324.78 860.888 324.78 864.023 291.864ZM845.766 324.78 842.632 291.864 862.37 291.864 859.235 324.78ZM862.524 290.218 837.229 290.218 835.034 283.634 869.97 283.634 867.775 290.218 862.526 290.218Z" stroke="#FFDB70" stroke-width="2" fill="#FFDB70"/></g></svg>