<?xml version="1.0" encoding="UTF-8"?><svg xmlns="http://www.w3.org/2000/svg" xmlns:xlink="http://www.w3.org/1999/xlink" viewBox="0 0 13.93 14.04"><defs><style>.cls-1{fill-rule:evenodd;stroke:url(#linear-gradient);stroke-width:2.3px;}.cls-1,.cls-2{fill:none;stroke-miterlimit:10;}.cls-2{stroke:url(#radial-gradient);stroke-width:.5px;}</style><radialGradient id="radial-gradient" cx="6.97" cy="7.02" fx="6.97" fy="7.02" r="6.99" gradientTransform="matrix(1, 0, 0, 1, 0, 0)" gradientUnits="userSpaceOnUse"><stop offset=".44" stop-color="#130c0e" stop-opacity="0"/><stop offset=".53" stop-color="#231e20" stop-opacity=".23"/><stop offset=".66" stop-color="#404041" stop-opacity=".65"/><stop offset=".71" stop-color="#404041" stop-opacity=".84"/><stop offset=".75" stop-color="#404041" stop-opacity=".94"/><stop offset="1" stop-color="#404041" stop-opacity=".95"/></radialGradient><linearGradient id="linear-gradient" x1=".74" y1="7.02" x2="13.19" y2="7.02" gradientTransform="matrix(1, 0, 0, 1, 0, 0)" gradientUnits="userSpaceOnUse"><stop offset="0" stop-color="#333391"/><stop offset=".16" stop-color="#00a8de"/><stop offset=".4" stop-color="#e91388"/><stop offset=".6" stop-color="#eb2d2e"/><stop offset=".8" stop-color="#fde92b"/><stop offset="1" stop-color="#009e54"/></linearGradient></defs><g id="Layer_3"><path class="cls-2" d="M4.64,.25V11.18M9.29,2.85V13.79m-.48-11.04L5.12,.36c-.3-.15-.65-.15-.95,.01L.52,2.84c-.17,.09-.27,.27-.27,.46V12.92c0,.29,.23,.52,.52,.52,.08,0,.17-.02,.24-.06l3.16-2.08c.3-.16,.65-.16,.95,0l3.61,2.38c.3,.15,.65,.15,.94,0l3.73-2.47c.17-.09,.28-.27,.28-.46V1.12c0-.29-.23-.52-.52-.52-.08,0-.17,.02-.24,.06l-3.16,2.08c-.29,.16-.65,.16-.94,.01Z"/></g><g id="Layer_2"><path class="cls-1" d="M.74,9.65c.28,0,1.23,.04,2.5-.65,1.17-.64,1.38-2.2,1.47-2.6,.07-.35,.15-.57,.51-1.18,.52-.88,1.75-.83,1.75-.83,0,0,1.15-.06,1.67,.68s.6,1.35,.78,2.16c.18,.83,.81,1.49,1.25,1.77,1.02,.65,2.53,.65,2.53,.65"/></g></svg>