<?xml version="1.0" encoding="UTF-8"?><svg id="Layer_1" xmlns="http://www.w3.org/2000/svg" viewBox="0 0 96.46 93.65"><defs><style>.cls-1,.cls-2{fill:#fec010;}.cls-2{fill-rule:evenodd;}.cls-3{fill:none;stroke:#f5bc5e;stroke-miterlimit:8;stroke-width:2px;}</style></defs><path class="cls-3" d="M15.49,81.93C4.42,71.57-.8,56.4,1.55,41.43"/><path class="cls-2" d="M13.51,9.7h21.74V48.81h-9.73v-6.32h-2.29v6.32H13.51V9.7Zm2.86-3.45h16.02v2.3H16.38v-2.3Zm20.03,42.56V8.55h-2.86v-3.45H15.23v3.45h-2.86V48.81h-4.01v1.15H40.41v-1.15h-4.01Z"/><rect class="cls-1" x="17.4" y="24.59" width="2.33" height="3.5"/><rect class="cls-1" x="17.4" y="18.77" width="2.33" height="3.5"/><rect class="cls-1" x="17.4" y="30.42" width="2.33" height="3.5"/><rect class="cls-1" x="17.4" y="36.24" width="2.33" height="3.5"/><rect class="cls-1" x="23.22" y="24.59" width="2.33" height="3.5"/><rect class="cls-1" x="23.22" y="36.24" width="2.33" height="3.5"/><rect class="cls-1" x="29.05" y="42.07" width="2.33" height="3.5"/><rect class="cls-1" x="29.05" y="12.94" width="2.33" height="3.5"/><rect class="cls-1" x="23.22" y="30.42" width="2.33" height="3.5"/><rect class="cls-1" x="23.22" y="18.77" width="2.33" height="3.5"/><rect class="cls-1" x="23.22" y="12.94" width="2.33" height="3.5"/><rect class="cls-1" x="17.4" y="12.94" width="2.33" height="3.5"/><rect class="cls-1" x="17.4" y="42.07" width="2.33" height="3.5"/><rect class="cls-1" x="29.05" y="24.59" width="2.33" height="3.5"/><rect class="cls-1" x="29.05" y="30.42" width="2.33" height="3.5"/><rect class="cls-1" x="29.05" y="36.24" width="2.33" height="3.5"/><rect class="cls-1" x="29.05" y="18.77" width="2.33" height="3.5"/><path class="cls-2" d="M72.45,92.44c-3.14-.71-11.58-2.28-24.44-2.28s-21.36,1.58-24.5,2.3v1.2l.12-.03c3.01-.69,11.4-2.29,24.37-2.29s21.31,1.6,24.32,2.28l.12,.03v-1.2Z"/><path class="cls-2" d="M65.66,63.32c-.53-.53-.85-1.25-.89-2.01,.1-.92,.5-1.78,1.14-2.45,.46,.53,1.14,1.49,1.14,2.41-.07,.79-.4,1.53-.95,2.11-.15,.03-.31,0-.44-.06Zm-2.42,2.43c-.51-.75-.78-1.65-.75-2.56,.73-.04,1.44,.23,1.96,.75,.57,.66,.79,1.87,.86,2.68-.77-.02-1.51-.33-2.07-.86Zm0,4.02c-.51-.75-.78-1.65-.75-2.56,.73-.04,1.44,.23,1.96,.75,.57,.66,.79,1.87,.86,2.68-.77-.02-1.51-.33-2.07-.86Zm0,4.02c-.51-.75-.78-1.65-.75-2.56,.73-.04,1.44,.23,1.96,.75,.57,.66,.79,1.87,.86,2.68-.77-.02-1.51-.33-2.07-.86Zm0,4.02c-.51-.75-.78-1.65-.75-2.56,.73-.04,1.44,.23,1.96,.75,.57,.66,.79,1.87,.86,2.68-.77-.02-1.51-.33-2.07-.86Zm6.08-14.61c.03,.91-.23,1.81-.75,2.56-.56,.54-1.3,.84-2.07,.87,.07-.8,.28-2.02,.85-2.68,.52-.51,1.24-.78,1.97-.75Zm-.75,6.58c-.56,.54-1.3,.84-2.07,.87,.07-.8,.28-2.02,.85-2.68,.53-.51,1.24-.78,1.97-.75,.03,.91-.23,1.81-.75,2.56Zm0,4.02c-.56,.54-1.3,.84-2.07,.87,.07-.8,.28-2.02,.85-2.68,.53-.51,1.24-.78,1.97-.75,.03,.91-.23,1.81-.75,2.56Zm0,4.02c-.56,.54-1.3,.84-2.07,.87,.07-.8,.28-2.02,.85-2.68,.53-.51,1.24-.78,1.97-.75,.03,.91-.23,1.81-.75,2.56Zm-14.87-15.63c-.53-.53-.85-1.25-.89-2.01,.1-.92,.5-1.78,1.14-2.45,.46,.53,1.14,1.49,1.14,2.41-.07,.79-.4,1.53-.95,2.11-.15,.03-.31,0-.44-.06Zm-2.42,2.43c-.51-.75-.78-1.65-.75-2.56,.73-.04,1.44,.23,1.96,.75,.57,.66,.79,1.87,.86,2.68-.77-.02-1.51-.33-2.07-.86Zm0,4.02c-.51-.75-.78-1.65-.75-2.56,.73-.04,1.44,.23,1.96,.75,.57,.66,.79,1.87,.86,2.68-.77-.02-1.51-.33-2.07-.86Zm0,4.02c-.51-.75-.78-1.65-.75-2.56,.73-.04,1.44,.23,1.96,.75,.57,.66,.79,1.87,.86,2.68-.77-.02-1.51-.33-2.07-.86Zm0,4.02c-.51-.75-.78-1.65-.75-2.56,.73-.04,1.44,.23,1.96,.75,.57,.66,.79,1.87,.86,2.68-.77-.02-1.51-.33-2.07-.86Zm6.08-14.61c.03,.91-.23,1.81-.75,2.56-.56,.54-1.3,.84-2.07,.87,.07-.8,.28-2.02,.85-2.68,.52-.51,1.24-.78,1.97-.75Zm-.75,6.58c-.56,.54-1.3,.84-2.07,.87,.07-.8,.28-2.02,.85-2.68,.53-.51,1.24-.78,1.97-.75,.03,.91-.23,1.81-.75,2.56Zm0,4.02c-.56,.54-1.3,.84-2.07,.87,.07-.8,.28-2.02,.85-2.68,.53-.51,1.24-.78,1.97-.75,.03,.91-.23,1.81-.75,2.56Zm0,4.02c-.56,.54-1.3,.84-2.07,.87,.07-.8,.28-2.02,.85-2.68,.53-.51,1.24-.78,1.97-.75,.03,.91-.23,1.81-.75,2.56Zm-14.87-14.48c-.53-.53-.85-1.25-.89-2.01,.1-.92,.5-1.78,1.14-2.45,.46,.53,1.14,1.49,1.14,2.41-.07,.79-.4,1.53-.95,2.11-.15,.03-.31,0-.44-.06Zm-2.42,2.43c-.51-.75-.78-1.65-.75-2.56,.73-.04,1.44,.23,1.96,.75,.57,.66,.79,1.87,.86,2.68-.77-.02-1.51-.33-2.07-.86Zm0,4.02c-.51-.75-.78-1.65-.75-2.56,.73-.04,1.44,.23,1.96,.75,.57,.66,.79,1.87,.86,2.68-.77-.02-1.51-.33-2.07-.86Zm0,4.02c-.51-.75-.78-1.65-.75-2.56,.73-.04,1.44,.23,1.96,.75,.57,.66,.79,1.87,.86,2.68-.77-.02-1.51-.33-2.07-.86Zm0,4.02c-.51-.75-.78-1.65-.75-2.56,.73-.04,1.44,.23,1.96,.75,.57,.66,.79,1.87,.86,2.68-.77-.02-1.51-.33-2.07-.86Zm6.08-14.61c.03,.91-.23,1.81-.75,2.56-.56,.54-1.3,.84-2.07,.87,.07-.8,.28-2.02,.85-2.68,.52-.51,1.24-.78,1.97-.75Zm-.75,6.58c-.56,.54-1.3,.84-2.07,.87,.07-.8,.28-2.02,.85-2.68,.53-.51,1.24-.78,1.97-.75,.03,.91-.23,1.81-.75,2.56Zm0,4.02c-.56,.54-1.3,.84-2.07,.87,.07-.8,.28-2.02,.85-2.68,.53-.51,1.24-.78,1.97-.75,.03,.91-.23,1.81-.75,2.56Zm0,4.02c-.56,.54-1.3,.84-2.07,.87,.07-.8,.28-2.02,.85-2.68,.53-.51,1.24-.78,1.97-.75,.03,.91-.23,1.81-.75,2.56Zm-14.87-13.33c-.53-.53-.85-1.25-.89-2.01,.1-.92,.5-1.78,1.14-2.45,.45,.53,1.14,1.49,1.14,2.41-.07,.79-.4,1.53-.95,2.11-.15,.03-.31,0-.44-.06Zm-2.42,2.43c-.51-.75-.78-1.65-.75-2.56,.73-.04,1.44,.23,1.96,.75,.57,.66,.79,1.87,.85,2.68-.77-.03-1.51-.33-2.07-.86Zm0,4.02c-.51-.75-.78-1.65-.75-2.56,.73-.04,1.44,.23,1.96,.75,.57,.66,.79,1.87,.85,2.68-.77-.03-1.51-.33-2.07-.86Zm0,4.02c-.51-.75-.78-1.65-.75-2.56,.73-.04,1.44,.23,1.96,.75,.57,.66,.79,1.87,.85,2.68-.77-.03-1.51-.33-2.07-.86Zm0,4.02c-.51-.75-.78-1.65-.75-2.56,.73-.04,1.44,.23,1.96,.75,.57,.66,.79,1.87,.85,2.68-.77-.03-1.51-.33-2.07-.86Zm6.08-14.61c.03,.91-.23,1.81-.75,2.56-.56,.54-1.3,.84-2.07,.87,.07-.8,.28-2.02,.85-2.68,.52-.51,1.24-.78,1.97-.75Zm-.75,6.58c-.56,.54-1.3,.84-2.07,.87,.07-.8,.28-2.02,.85-2.68,.53-.51,1.24-.78,1.97-.75,.03,.91-.23,1.81-.75,2.56h0Zm0,4.02c-.56,.54-1.3,.84-2.07,.87,.07-.8,.28-2.02,.85-2.68,.53-.51,1.24-.78,1.97-.75,.03,.91-.23,1.81-.75,2.56h0Zm0,4.02c-.56,.54-1.3,.84-2.07,.87,.07-.8,.28-2.02,.85-2.68,.53-.51,1.24-.78,1.97-.75,.03,.91-.23,1.81-.75,2.56h0Zm39.73,8.84c-1.22-.27-3.23-.66-5.98-1.05v-5.78c1.11-.02,2.16-.47,2.95-1.26,1.2-1.38,1.02-3.8,1.02-3.9l-.04-.45-.44-.07s-.1-.01-.23-.03c.55-1.07,.79-2.27,.71-3.47l-.04-.45-.44-.07s-.1-.01-.23-.03c.55-1.07,.79-2.27,.71-3.47l-.04-.45-.44-.07s-.1-.01-.23-.03c.54-1.04,.79-2.21,.71-3.39,0-.01,0-.03,0-.04v-4.62c0-.32-.25-.57-.57-.57s-.57,.26-.57,.57v4.02c-.44,0-.88,.06-1.3,.19,.09-.3,.14-.61,.16-.92,0-1.58-1.23-3.03-1.71-3.53v-3.78c0-.32-.25-.57-.57-.57s-.57,.26-.57,.57v3.78c-.47,.5-1.71,1.95-1.71,3.57,.02,.29,.07,.59,.14,.87-.41-.12-.84-.18-1.28-.18v-4.02c0-.32-.25-.57-.57-.57s-.57,.26-.57,.57v4.61c-.08,1.19,.16,2.38,.71,3.44-.13,.01-.21,.02-.23,.03l-.44,.07-.04,.45c-.08,1.2,.16,2.4,.71,3.47-.13,.01-.21,.02-.23,.03l-.44,.07-.04,.45c-.08,1.2,.16,2.4,.71,3.47-.13,.01-.21,.02-.23,.03l-.44,.07-.04,.45c0,.1-.18,2.53,1.02,3.9,.79,.78,1.84,1.23,2.95,1.26v5.62c-2.91-.37-6.53-.72-10.81-.9v-5.87c1.11-.02,2.16-.47,2.95-1.26,1.2-1.38,1.02-3.8,1.02-3.9l-.04-.45-.44-.07s-.1-.01-.23-.03c.55-1.07,.79-2.27,.71-3.47l-.04-.45-.44-.07s-.1-.01-.23-.03c.55-1.07,.79-2.27,.71-3.47l-.04-.45-.44-.07s-.1-.01-.23-.03c.54-1.04,.79-2.21,.71-3.39,0-.01,0-.03,0-.04v-4.62c0-.32-.25-.57-.57-.57s-.57,.26-.57,.57v4.02c-.44,0-.88,.06-1.3,.19,.09-.3,.14-.61,.16-.92,0-1.58-1.23-3.03-1.71-3.53v-3.78c0-.32-.25-.57-.57-.57s-.57,.26-.57,.57v3.78c-.47,.5-1.71,1.95-1.71,3.57,.02,.29,.07,.59,.14,.87-.41-.12-.84-.18-1.28-.18v-4.02c0-.32-.25-.57-.57-.57s-.57,.26-.57,.57v4.61c-.08,1.19,.16,2.38,.71,3.44-.13,.01-.21,.02-.23,.03l-.44,.07-.04,.45c-.08,1.2,.16,2.4,.71,3.47-.13,.01-.21,.02-.23,.03l-.44,.07-.04,.45c-.08,1.2,.16,2.4,.71,3.47-.13,.01-.21,.02-.23,.02l-.44,.07-.04,.45c0,.1-.18,2.53,1.02,3.9,.79,.78,1.84,1.23,2.95,1.26v5.83c-1.7-.06-3.49-.1-5.38-.1s-3.72,.04-5.43,.1v-5.83c1.11-.02,2.16-.47,2.95-1.26,1.2-1.38,1.02-3.8,1.02-3.9l-.04-.45-.44-.07s-.1-.01-.23-.03c.55-1.07,.79-2.27,.71-3.47l-.04-.45-.44-.07s-.1-.01-.23-.03c.55-1.07,.79-2.27,.71-3.47l-.04-.45-.44-.07s-.1-.01-.23-.03c.54-1.04,.79-2.21,.71-3.39,0-.01,0-.03,0-.04v-4.62c0-.32-.25-.57-.57-.57s-.57,.26-.57,.57v4.02c-.44,0-.88,.06-1.3,.19,.09-.3,.14-.61,.16-.92,0-1.58-1.23-3.03-1.71-3.53v-3.78c0-.32-.25-.57-.57-.57s-.57,.26-.57,.57v3.78c-.47,.5-1.71,1.95-1.71,3.57,.02,.29,.07,.59,.14,.87-.41-.12-.84-.18-1.28-.18v-4.02c0-.32-.25-.57-.57-.57s-.57,.26-.57,.57v4.61c-.08,1.19,.16,2.38,.71,3.44-.13,.01-.21,.02-.23,.03l-.44,.07-.04,.45c-.08,1.2,.16,2.4,.71,3.47-.13,.01-.21,.02-.23,.03l-.44,.07-.04,.45c-.08,1.2,.16,2.4,.71,3.47-.13,.01-.21,.02-.23,.02l-.44,.07-.04,.45c0,.1-.18,2.53,1.02,3.9,.79,.78,1.84,1.23,2.95,1.26v5.87c-4.29,.18-7.91,.53-10.81,.9v-5.63c1.11-.02,2.16-.47,2.95-1.26,1.2-1.38,1.02-3.8,1.02-3.9l-.04-.45-.44-.07s-.1-.01-.23-.03c.55-1.07,.79-2.27,.71-3.47l-.04-.45-.44-.07s-.1-.01-.23-.03c.55-1.07,.79-2.27,.71-3.47l-.04-.45-.44-.07s-.1-.01-.23-.03c.54-1.04,.79-2.21,.71-3.39,0-.01,0-.03,0-.04v-4.62c0-.32-.25-.57-.57-.57s-.57,.26-.57,.57v4.02c-.44,0-.88,.06-1.3,.19,.09-.3,.14-.61,.16-.92,0-1.58-1.23-3.03-1.71-3.53v-3.78c0-.32-.25-.57-.57-.57s-.57,.26-.57,.57v3.78c-.47,.5-1.71,1.95-1.71,3.57,.02,.29,.07,.59,.14,.87-.41-.12-.84-.18-1.28-.18v-4.02c0-.32-.25-.57-.57-.57s-.57,.26-.57,.57v4.61c-.08,1.19,.16,2.38,.71,3.44-.13,.01-.21,.02-.23,.03l-.44,.07-.04,.45c-.08,1.2,.16,2.4,.71,3.47-.13,.01-.21,.02-.23,.03l-.44,.07-.04,.45c-.08,1.2,.16,2.4,.71,3.47-.13,.01-.21,.02-.23,.03l-.44,.07-.04,.45c0,.1-.18,2.53,1.02,3.9,.79,.78,1.84,1.23,2.95,1.26v5.78c-2.75,.39-4.76,.78-5.98,1.05v1.17l.12-.03c3.01-.68,11.4-2.25,24.37-2.25s21.31,1.56,24.32,2.23l.12,.03v-1.17Z"/><path class="cls-3" d="M95.11,42.96c1.87,15.05-3.83,30.04-15.22,40.04"/><path class="cls-3" d="M36.02,2.74c7.45-2.12,15.31-2.31,22.85-.56"/><path class="cls-2" d="M88.51,30.35c-1.52,.21-3.05-.2-4.26-1.15l-.44-.34h0l-.53,.13c-2.95,.76-6.07-.21-8.07-2.52l-.19-.21,.26-.36c.18-.23,.16-.55-.03-.77-.22-.23-.58-.23-.81-.01-.02,.02-.04,.05-.06,.07l-.64,.89s-.28,.42-.32,.48l-.04,.06c-1.45,2.01-3.77,3.2-6.24,3.2-1.2,0-2.38-.28-3.45-.83,0,0-.34-.14-.68-.32-.18-.09-.37-.21-.37-.21l-.34-.2c-.24-.15-.56-.11-.76,.1-.21,.24-.18,.61,.06,.81,.02,.02,.05,.04,.08,.06l.47,.28v.02c-1.75,3.74-6.17,5.36-9.89,3.61-3.72-1.75-5.32-6.2-3.58-9.95,.9-1.94,2.58-3.4,4.62-4l.44-.13,.68,.76c.2,.23,.55,.26,.78,.07,.25-.22,.27-.6,.05-.85h0l-1-1.13-.25-.35c-.64-.91-1.04-1.97-1.14-3.08-.26-3.33,2.21-6.25,5.52-6.51,.5-.04,1.01-.02,1.51,.07,.84,.15,1.64,.48,2.34,.97l.32,.21-.11,1.02c-.04,.32,.19,.6,.5,.64,.02,0,.05,0,.07,0,.29,0,.54-.22,.57-.52l.16-1.51,.12-.46c.58-2.41,2.59-4.19,5.04-4.46,2.13-.2,4.2,.82,5.35,2.64h0l-.77,.49c-.26,.15-.36,.48-.24,.76,.14,.29,.48,.4,.76,.26,.02,0,.03-.02,.05-.03l1.38-.9c.06-.03,.27-.17,.27-.17,2.72-1.6,6.22-.67,7.81,2.07,.51,.88,.78,1.89,.78,2.91,0,.19,0,.38-.03,.57l-.08,.79h0l.71,.36c1.77,.88,3.16,2.38,3.92,4.21l-.38-.1c-.28-.08-.57,.06-.69,.32-.13,.29,0,.63,.29,.76,.03,.01,.06,.02,.09,.03l2,.51c2.87,1.33,4.12,4.75,2.79,7.64-.82,1.78-2.48,3.02-4.41,3.29Zm-8.01,0c-1.07,1.27-2.39,2.28-3.89,2.98-1.14,.55-2.58,1.26-3.84,2.01,.75-2.36,1.81-4.61,3.16-6.68,1.35,.97,2.92,1.55,4.57,1.69Zm-11.43,.4c.44-.1,.87-.23,1.28-.39-.3,.64-.59,1.3-.85,1.96-.12-.55-.27-1.07-.43-1.57Zm-5.93-.66s.03-.08,.03-.08c0,0,.28,.13,.33,.15,.4,.18,.8,.33,1.22,.45,.03,0,.04,.01,.04,.01,.65,1.42,1.04,2.94,1.17,4.5-1.27-1.14-2.64-2.16-4.08-3.06,.52-.59,.95-1.26,1.29-1.97Zm19.74,1.53c-1.89,2.14-5.65,4.45-8.3,5.78-2.46,1.21-4.02,3.73-4.01,6.49v4.93c0,.62,.21,1.23,.59,1.73h-4.03c.38-.5,.58-1.1,.59-1.73v-4.38c0-2.6-1.12-5.07-3.06-6.78l-.53-.47c-.97-.89-1.99-1.73-3.06-2.51l-1.2-.94c.41-.25,.79-.53,1.15-.84,1.88,1.13,3.6,2.49,5.13,4.05l.99,1.06v-1.45c.01-1.93-.33-3.84-1.01-5.65,.34,.04,.67,.06,1.01,.06,.27,0,.53-.02,.79-.04,.4,1.21,.67,2.47,.82,3.73l.32,2.67,.8-2.56c.58-1.84,1.33-3.63,2.24-5.33,.87-.6,1.63-1.34,2.24-2.2,.22,.25,.45,.49,.7,.71-1.83,2.57-3.08,6.1-3.87,8.61l-.54,1.71,1.43-1.08c1.6-1.09,3.3-2.03,5.06-2.82,1.92-.89,3.58-2.27,4.82-4,.54-.04,1.08-.13,1.6-.26h0c.13,.1,.27,.2,.41,.3l-1.08,1.21Zm7.26-13.44c-.77-2.41-2.48-4.4-4.73-5.52h0c.02-.23,.03-.46,.03-.69,0-3.81-3.07-6.91-6.85-6.91-1.18,0-2.35,.31-3.38,.89-2.03-3.21-6.27-4.16-9.46-2.12-1.48,.95-2.54,2.43-2.97,4.14-3.29-2.19-7.73-1.28-9.9,2.04-1.61,2.46-1.57,5.65,.1,8.07-4.54,1.35-7.14,6.15-5.8,10.72,1.34,4.57,6.11,7.19,10.65,5.84,.31-.09,.62-.2,.91-.33l1.64,1.29c1.04,.76,2.04,1.58,2.99,2.45l.53,.47c1.69,1.49,2.67,3.65,2.67,5.91v4.38c0,.95-.77,1.73-1.72,1.73h-1.11c-.29,0-.54,.2-.59,.48-.05,.31,.16,.61,.47,.66,.03,0,.06,0,.1,0h10.84c.29,0,.54-.2,.59-.48,.05-.31-.16-.61-.47-.66-.03,0-.06,0-.1,0h-1.14c-.95,0-1.72-.77-1.72-1.73v-4.93c0-2.32,1.31-4.44,3.38-5.46,2.88-1.44,6.66-3.78,8.65-6.05l1.25-1.41c3.47,1.52,7.52-.08,9.03-3.57,1.51-3.5-.08-7.56-3.55-9.09-.11-.05-.22-.09-.33-.13h0Z"/></svg>